<svg width="40" height="40" viewBox="0 0 39 35" fill="none" xmlns="http://www.w3.org/2000/svg">
<path d="M0 3.5C0 1.567 1.567 0 3.5 0H35.5C37.433 0 39 1.567 39 3.5C39 5.433 37.433 7 35.5 7H3.5C1.567 7 0 5.433 0 3.5Z" fill="white"/>
<path d="M0 3.5C0 1.567 1.567 0 3.5 0H35.5C37.433 0 39 1.567 39 3.5C39 5.433 37.433 7 35.5 7H3.5C1.567 7 0 5.433 0 3.5Z" fill="white"/>
<path d="M0 3.5C0 1.567 1.567 0 3.5 0H35.5C37.433 0 39 1.567 39 3.5C39 5.433 37.433 7 35.5 7H3.5C1.567 7 0 5.433 0 3.5Z" fill="white"/>
<path d="M0 17.5C0 15.567 1.567 14 3.5 14H35.5C37.433 14 39 15.567 39 17.5C39 19.433 37.433 21 35.5 21H3.5C1.567 21 0 19.433 0 17.5Z" fill="white"/>
<path d="M0 17.5C0 15.567 1.567 14 3.5 14H35.5C37.433 14 39 15.567 39 17.5C39 19.433 37.433 21 35.5 21H3.5C1.567 21 0 19.433 0 17.5Z" fill="white"/>
<path d="M0 17.5C0 15.567 1.567 14 3.5 14H35.5C37.433 14 39 15.567 39 17.5C39 19.433 37.433 21 35.5 21H3.5C1.567 21 0 19.433 0 17.5Z" fill="white"/>
<path d="M0 31.5C0 29.567 1.567 28 3.5 28H35.5C37.433 28 39 29.567 39 31.5C39 33.433 37.433 35 35.5 35H3.5C1.567 35 0 33.433 0 31.5Z" fill="white"/>
<path d="M0 31.5C0 29.567 1.567 28 3.5 28H35.5C37.433 28 39 29.567 39 31.5C39 33.433 37.433 35 35.5 35H3.5C1.567 35 0 33.433 0 31.5Z" fill="white"/>
<path d="M0 31.5C0 29.567 1.567 28 3.5 28H35.5C37.433 28 39 29.567 39 31.5C39 33.433 37.433 35 35.5 35H3.5C1.567 35 0 33.433 0 31.5Z" fill="white"/>
</svg>
